<svg xmlns="http://www.w3.org/2000/svg" xmlns:xlink="http://www.w3.org/1999/xlink" viewBox="0 0 150 150"><defs><style>.cls-1{fill:#fff;}.cls-2{clip-path:url(#clip-path);}.cls-3{fill:#eaad75;}.cls-4{fill:#a3a7a9;}</style><clipPath id="clip-path"><circle class="cls-1" cx="75" cy="75" r="75"/></clipPath></defs><title>logotipo</title><g id="Capa_1" data-name="Capa 1"><circle class="cls-1" cx="75" cy="75" r="75"/><g class="cls-2"><rect class="cls-1" x="-3.56" y="-3.56" width="157.11" height="157.11"/><path class="cls-3" d="M108.15,76.91s-30.27-2.79-64.83,29.58v0c0-.27,0-.54,0-.8s0-.34,0-.55,0-.14,0-.22a26,26,0,0,1,3.42-12.17.41.41,0,0,0,.05-.09,34,34,0,0,1,5.49-7.83,48.28,48.28,0,0,1,7-7h0C64.5,73,67.86,70.18,71,63.91c0,0,18.74,6.38,32.65-2.39h0s.36,2.46.93,4.8c.06.24.12.48.19.72.13.44.26.87.41,1.27,0,.06,0,.12.07.19l0,0c.34,1,.69,1.78,1,2.58a34.42,34.42,0,0,1,1.71,5.08.15.15,0,0,0,0,.06C108.1,76.46,108.12,76.68,108.15,76.91Z"/><path class="cls-4" d="M124.71,39.53a7.55,7.55,0,0,0-1.79-4.48c-1.69-1.79-3.77-1.78-5.79-1.76a11.24,11.24,0,0,1-4.65-.66c-2-.85-2.73-2.24-3.59-4a14.26,14.26,0,0,0-3.63-5.05c-5.42-4.66-14.1-4.44-20.3-2.15-6.6,2.44-11.64,7.86-14.21,15.28-1.1,3.19-4,11.67.91,16.35a8.9,8.9,0,0,0,2,1.43,77.92,77.92,0,0,1-3.51,9C67.37,69,64.47,71.69,60.09,75.77L58.73,77l-.06.06a49.14,49.14,0,0,0-7.07,7.06,35.1,35.1,0,0,0-5.62,8l0,.06a27.05,27.05,0,0,0-3.54,12.58s0,.09,0,.13v.09q0,.27,0,.48v.11c0,.27,0,.55,0,.85l.11,2.14a25.53,25.53,0,0,0,2.63,9l1.74-.86a23.35,23.35,0,0,1-2.53-9.88C61.84,90.57,78.19,83.54,88.85,80.52a62.91,62.91,0,0,1,18.38-2.68c.08,3.39-1.37,6-3.32,9.46a53,53,0,0,0-4.59,9.9c-2.43,7.32-4.4,15.29.31,25l.24.47.52.07a6.16,6.16,0,0,1,5.3,6.37h1.94a8,8,0,0,0-6.46-8.21c-4.13-8.9-2.27-16.31,0-23.14a52.14,52.14,0,0,1,4.44-9.57c1.92-3.42,3.59-6.42,3.57-10.26l-.06-1.16h0c0-.24,0-.48-.08-.71l0-.11a32.84,32.84,0,0,0-1.76-5.25v0c-.31-.72-.68-1.56-1-2.51l0-.12s0,0,0,0l0-.1a10.11,10.11,0,0,1-.38-1.17v0c-.06-.19-.11-.39-.16-.58l0-.07c-.47-1.92-.79-3.94-.89-4.53l0-.17h0v0a16.28,16.28,0,0,1,.13-7.26c6,1.2,11.63-.05,15.25-3.42h0C120.93,49.81,125.4,45.26,124.71,39.53ZM107,75.88a65,65,0,0,0-18.57,2.75c-10.6,3-26.71,9.84-44.06,25.57a25.21,25.21,0,0,1,3.25-11l.1-.17A32.77,32.77,0,0,1,53,85.46l.05-.06a47.6,47.6,0,0,1,6.8-6.8l.42-.25v-.12c.37-.36.74-.7,1.1-1,4.19-3.9,7.26-6.76,10.11-12.11h0l.28.09.15,0,.23.06.18,0,.39.11.17,0,.32.08.21,0,.49.12.2,0,.39.09.24,0,.58.12.22,0,.45.09.28,0,.61.11.28,0,.52.09.32,0,.6.09.38,0,.55.07.36.05.6.07.44,0,.6.06L82,67l.61,0,.49,0,.64,0h.43l.59,0h2.31l.75,0,.39,0L89,67c.13,0,.27,0,.4,0l.76-.06.4,0c.26,0,.51-.06.77-.09l.41,0,.77-.12.41-.07.77-.14.42-.09.77-.16.42-.1.77-.2.42-.12.76-.23.42-.13.77-.26.42-.15.76-.29.41-.17.76-.33.39-.19.77-.37.36-.19.69-.37c.17.94.41,2.22.72,3.48l0,.08.18.67a13.46,13.46,0,0,0,.43,1.31,2.25,2.25,0,0,0,.08.24l0,.05c.35,1,.72,1.84,1,2.57A42.12,42.12,0,0,1,107,75.88Zm11.69-26.63c-3.33,3.1-8.71,4.13-14.41,2.75h0a24.07,24.07,0,0,1-4.09-1.39l-.79,1.77a25.17,25.17,0,0,0,3.49,1.25,17.45,17.45,0,0,0-.26,7.39h0l-1.05.59,0,0a26.81,26.81,0,0,1-3.3,1.47h0C88,66.88,76.74,64.47,72.8,63.41h0l-.37-.1h0a83,83,0,0,0,3.11-8.07,12.42,12.42,0,0,0,3.46.49,13.63,13.63,0,0,0,6.85-1.86A13.08,13.08,0,0,0,92,41.51a18.13,18.13,0,0,0-1.88-6.28l-1.68,1a16.1,16.1,0,0,1,1.64,5.56A11.08,11.08,0,0,1,84.8,52.19a11.27,11.27,0,0,1-9.58.89h0A7,7,0,0,1,73,51.67c-4-3.83-1.4-11.45-.41-14.33,2.37-6.85,7-11.85,13-14.08,5.48-2,13.57-2.33,18.37,1.8a12.43,12.43,0,0,1,3.15,4.44c.92,1.86,1.87,3.78,4.57,4.92a12.94,12.94,0,0,0,5.42.81c1.9,0,3.26,0,4.36,1.15a5.68,5.68,0,0,1,1.29,3.4C123.37,44.56,119.48,48.51,118.69,49.25Z"/><path class="cls-4" d="M68.11,95.46l-.35,1.9c8.45,1.56,13.12,8.73,12.18,14.45-1,6.26-8.32,9.08-8.39,9.11l-3,1.12,3.09.73c.43.1,4.27,1.09,5.23,4.16a4.94,4.94,0,0,1,.2,1.16H52.17c-10.64,0-18.33-4.35-22.25-12.6a22.45,22.45,0,0,1,3.16-23.94l-1.49-1.24a24.42,24.42,0,0,0-3.42,26c4.21,8.84,12.73,13.7,24,13.7H78.91l.1-.87a7.07,7.07,0,0,0-.26-2.8,8.07,8.07,0,0,0-4.39-4.66c2.57-1.45,6.66-4.51,7.5-9.58C83,105.49,77.69,97.21,68.11,95.46Z"/></g></g></svg>